<?xml version="1.0" standalone="no"?>
<!DOCTYPE svg PUBLIC "-//W3C//DTD SVG 20010904//EN"
 "http://www.w3.org/TR/2001/REC-SVG-20010904/DTD/svg10.dtd">
<svg version="1.0" xmlns="http://www.w3.org/2000/svg"
 width="700.000000pt" height="700.000000pt" viewBox="0 0 700.000000 700.000000"
 preserveAspectRatio="xMidYMid meet">
<metadata>
Created by potrace 1.11, written by Peter Selinger 2001-2013
</metadata>
<g transform="translate(0.000000,700.000000) scale(0.100000,-0.100000)"
fill="#000000" stroke="none">
<path d="M1557 6984 c-1 -1 -28 -5 -60 -9 -138 -15 -292 -74 -424 -162 -225
-148 -371 -371 -431 -656 -3 -18 -7 -1209 -9 -2647 -2 -2824 -5 -2661 50
-2830 111 -340 425 -608 779 -666 73 -12 268 -11 339 2 202 37 385 131 524
268 60 60 125 139 149 181 9 17 28 50 42 75 41 74 85 206 100 305 11 67 13
151 13 642 l1 511 288 0 288 1 340 -485 c186 -267 345 -493 351 -502 7 -9 39
-55 72 -102 33 -47 69 -98 81 -115 63 -89 172 -245 225 -322 84 -123 230 -266
333 -326 400 -235 887 -173 1223 156 129 125 213 279 266 482 27 108 24 331
-6 449 -44 171 -91 257 -306 561 -166 234 -134 189 -278 395 -156 224 -143
204 -209 300 -32 45 -58 84 -58 86 0 2 60 64 133 137 73 72 151 154 173 182
21 27 47 58 56 69 16 18 120 171 173 256 122 193 259 548 299 775 3 17 8 40
10 53 22 106 38 291 39 430 0 96 -10 293 -18 335 -3 11 -7 39 -10 62 -45 323
-185 684 -380 980 -106 160 -183 254 -324 395 -233 233 -455 387 -747 518
-152 68 -377 140 -519 167 -84 15 -218 35 -285 41 -59 6 -2277 13 -2283 8z"/>
</g>
</svg>
