<?xml version="1.0" encoding="UTF-8" standalone="no"?>
<svg
   xmlns:dc="http://purl.org/dc/elements/1.1/"
   xmlns:cc="http://creativecommons.org/ns#"
   xmlns:rdf="http://www.w3.org/1999/02/22-rdf-syntax-ns#"
   xmlns:svg="http://www.w3.org/2000/svg"
   xmlns="http://www.w3.org/2000/svg"
   xmlns:sodipodi="http://sodipodi.sourceforge.net/DTD/sodipodi-0.dtd"
   xmlns:inkscape="http://www.inkscape.org/namespaces/inkscape"
   width="512"
   height="512"
   viewBox="0 0 512 512"
   fill="none"
   version="1.1"
   id="svg27"
   sodipodi:docname="oichat.svg"
   inkscape:export-filename="/home/friedger/_repos/github/friedger/riot-web/res/oichat-icons/oichat-32x32.png"
   inkscape:export-xdpi="6"
   inkscape:export-ydpi="6"
   inkscape:version="0.92.3 (2405546, 2018-03-11)">
  <metadata
     id="metadata33">
    <rdf:RDF>
      <cc:Work
         rdf:about="">
        <dc:format>image/svg+xml</dc:format>
        <dc:type
           rdf:resource="http://purl.org/dc/dcmitype/StillImage" />
      </cc:Work>
    </rdf:RDF>
  </metadata>
  <defs
     id="defs31" />
  <sodipodi:namedview
     pagecolor="#ffffff"
     bordercolor="#666666"
     borderopacity="1"
     objecttolerance="10"
     gridtolerance="10"
     guidetolerance="10"
     inkscape:pageopacity="0"
     inkscape:pageshadow="2"
     inkscape:window-width="3706"
     inkscape:window-height="2031"
     id="namedview29"
     showgrid="false"
     inkscape:zoom="3.4785156"
     inkscape:cx="106.94217"
     inkscape:cy="256"
     inkscape:window-x="134"
     inkscape:window-y="55"
     inkscape:window-maximized="1"
     inkscape:current-layer="svg27" />
  <path
     d="M265.093 1.06442H119.149C78.6687 1.06442 46 33.7075 46 74.1566V438.908C46 479.357 78.6687 512 119.149 512C159.63 512 192.299 479.357 192.299 438.908V365.816H265.448C366.295 365.816 447.967 284.208 447.967 183.44C447.967 82.6722 365.94 1.06442 265.093 1.06442Z"
     fill="#270F34"
     id="path10" />
  <path
     d="M434.473 397.039C457.555 430.037 449.743 475.454 416.364 498.517C382.985 521.58 337.888 513.774 314.807 480.421L205.437 324.302C182.356 291.304 190.523 245.888 223.547 222.825C256.571 199.762 302.023 207.922 325.104 240.92L434.473 397.039Z"
     fill="#270F34"
     id="path12" />
  <mask
     id="mask0"
     mask-type="alpha"
     maskUnits="userSpaceOnUse"
     x="116"
     y="56"
     width="226"
     height="226">
    <path
       d="M342 210.727C342 210.727 342.055 234.282 339.49 244.492C336.926 254.701 332.216 261.819 326.998 267.037C321.756 272.277 314.813 277.042 304.229 279.525C293.645 282.008 270.68 281.964 270.68 281.964L187.248 282C187.248 282 163.689 282.055 153.478 279.491C143.267 276.926 136.148 272.218 130.93 267C125.688 261.76 120.923 254.817 118.439 244.235C115.956 233.653 116 210.691 116 210.691V127.273C116 127.273 115.945 103.718 118.51 93.5085C121.074 83.299 125.784 76.1811 131.002 70.9637C136.244 65.7229 143.187 60.9577 153.771 58.4751C164.355 55.9924 187.32 56.0361 187.32 56.0361L270.752 56.0001C270.752 56.0001 294.311 55.9454 304.522 58.5095C314.733 61.0736 321.852 65.7821 327.07 70.9997C332.311 76.2405 337.077 83.1829 339.561 93.7651C342.044 104.348 342 127.309 342 127.309V210.727Z"
       fill="white"
       id="path14" />
  </mask>
  <g
     mask="url(#mask0)"
     id="g25">
    <path
       d="M342 210.727C342 210.727 342.055 234.282 339.49 244.492C336.926 254.701 332.216 261.819 326.998 267.037C321.756 272.277 314.813 277.042 304.229 279.525C293.645 282.008 270.68 281.964 270.68 281.964L187.248 282C187.248 282 163.689 282.055 153.478 279.491C143.267 276.926 136.148 272.218 130.93 267C125.688 261.76 120.923 254.817 118.439 244.235C115.956 233.653 116 210.691 116 210.691V127.273C116 127.273 115.945 103.718 118.51 93.5085C121.074 83.299 125.784 76.1811 131.002 70.9637C136.244 65.7229 143.187 60.9577 153.771 58.4751C164.355 55.9924 187.32 56.0361 187.32 56.0361L270.752 56.0001C270.752 56.0001 294.311 55.9454 304.522 58.5095C314.733 61.0736 321.852 65.7821 327.07 70.9997C332.311 76.2405 337.077 83.1829 339.561 93.7651C342.044 104.348 342 127.309 342 127.309V210.727Z"
       fill="#270F34"
       id="path17" />
  </g>
</svg>
