<svg width="20px" height="20px" viewBox="0 0 80 80" fill="none" xmlns="http://www.w3.org/2000/svg">
<path fill-rule="evenodd" clip-rule="evenodd" d="M4.11334 11.6941C4.00234 13.259 4 15.2747 4 18.24L4 61.76C4 64.7253 4.00234 66.741 4.11334 68.3059C4.22165 69.8329 4.41869 70.6243 4.65796 71.1772C5.46607 73.0446 6.95539 74.5339 8.82282 75.342C9.37574 75.5813 10.1671 75.7783 11.6941 75.8867C13.259 75.9977 15.2747 76 18.24 76L61.76 76C64.7253 76 66.741 75.9977 68.3059 75.8867C69.8329 75.7783 70.6243 75.5813 71.1772 75.342C73.0446 74.5339 74.5339 73.0446 75.342 71.1772C75.5813 70.6243 75.7783 69.8329 75.8867 68.3059C75.9977 66.741 76 64.7253 76 61.76L76 18.24C76 15.2747 75.9977 13.259 75.8867 11.6941C75.7783 10.1671 75.5813 9.37574 75.342 8.82281C74.5339 6.95539 73.0446 5.46606 71.1772 4.65796C70.6243 4.41869 69.8329 4.22165 68.3059 4.11334C66.741 4.00234 64.7253 4 61.76 4L18.24 4C15.2747 4 13.259 4.00234 11.6941 4.11334C10.1671 4.22166 9.37574 4.41869 8.82281 4.65797C6.95539 5.46607 5.46607 6.9554 4.65796 8.82281C4.41869 9.37574 4.22165 10.1671 4.11334 11.6941ZM72.7658 79.0131C70.4851 80 67.5767 80 61.76 80L18.24 80C12.4233 80 9.51492 80 7.23422 79.0131C4.43309 77.8009 2.1991 75.5669 0.986944 72.7658C-6.65457e-07 70.4851 -8.68862e-07 67.5767 -1.27567e-06 61.76L-4.31939e-06 18.24C-4.7262e-06 12.4233 -4.9296e-06 9.51492 0.986942 7.23422C2.1991 4.43309 4.43309 2.19911 7.23422 0.986946C9.51492 -2.59944e-07 12.4233 -3.39399e-07 18.24 -4.9831e-07L61.76 -1.68726e-06C67.5767 -1.84617e-06 70.4851 -1.92563e-06 72.7658 0.986944C75.5669 2.1991 77.8009 4.43309 79.013 7.23422C80 9.51492 80 12.4233 80 18.24L80 61.76C80 67.5767 80 70.4851 79.0131 72.7658C77.8009 75.5669 75.5669 77.8009 72.7658 79.0131Z" fill="#FFFFFF"/>
<path fill-rule="evenodd" clip-rule="evenodd" d="M43.5417 27.2341C43.5417 22.1381 47.6745 18.0058 52.7711 18.0058C57.8677 18.0058 62.0005 22.1381 62.0005 27.2341C62.0005 32.3317 57.8681 36.4643 52.7711 36.4643C47.6741 36.4643 43.5417 32.3317 43.5417 27.2341ZM52.7711 22.0058C49.8832 22.0058 47.5417 24.3477 47.5417 27.2341C47.5417 30.1228 49.8835 32.4643 52.7711 32.4643C55.6587 32.4643 58.0005 30.1228 58.0005 27.2341C58.0005 24.3477 55.659 22.0058 52.7711 22.0058ZM18.0005 27.2333C18.0005 22.1385 22.1313 18.0071 27.2255 18.0071C32.3213 18.0071 36.4525 22.1381 36.4525 27.2333C36.4525 32.3285 32.3213 36.4595 27.2255 36.4595C22.1313 36.4595 18.0005 32.3282 18.0005 27.2333ZM27.2255 22.0071C24.3409 22.0071 22.0005 24.3472 22.0005 27.2333C22.0005 30.1195 24.3409 32.4595 27.2255 32.4595C30.1125 32.4595 32.4525 30.1191 32.4525 27.2333C32.4525 24.3475 30.1125 22.0071 27.2255 22.0071ZM52.7718 47.5639C49.883 47.5639 47.5415 49.9057 47.5415 52.7933C47.5415 55.6809 49.883 58.0228 52.7718 58.0228C55.6582 58.0228 58 55.6813 58 52.7933C58 49.9054 55.6582 47.5639 52.7718 47.5639ZM43.5415 52.7933C43.5415 47.6964 47.6742 43.5639 52.7718 43.5639C57.8678 43.5639 62 47.6967 62 52.7933C62 57.89 57.8678 62.0228 52.7718 62.0228C47.6742 62.0228 43.5415 57.8903 43.5415 52.7933ZM18 52.7979C18 47.7021 22.131 43.571 27.2261 43.571C32.3213 43.571 36.4522 47.7021 36.4522 52.7979C36.4522 57.892 32.3209 62.0228 27.2261 62.0228C22.1314 62.0228 18 57.892 18 52.7979ZM27.2261 47.571C24.3404 47.571 22 49.911 22 52.7979C22 55.6824 24.34 58.0228 27.2261 58.0228C30.1122 58.0228 32.4522 55.6824 32.4522 52.7979C32.4522 49.911 30.1119 47.571 27.2261 47.571Z" fill="#FFFFFF"/>
</svg>
