<!DOCTYPE svg PUBLIC "-//W3C//DTD SVG 20010904//EN" "http://www.w3.org/TR/2001/REC-SVG-20010904/DTD/svg10.dtd">
<svg version="1.0" xmlns="http://www.w3.org/2000/svg" width="20px" height="20px" viewBox="0 0 1280 1280" preserveAspectRatio="xMidYMid meet">
<g id="layer101" fill="#FFFFFF" stroke="none">
 <path d="M555 1267 c-101 -58 -336 -202 -357 -219 l-28 -23 60 -280 c33 -154 63 -287 67 -295 3 -8 5 -20 4 -27 -1 -7 66 -105 149 -218 l151 -205 39 0 39 0 151 205 c83 113 150 211 149 218 -1 7 1 19 4 27 4 8 34 141 67 295 l60 280 -28 22 c-24 20 -244 155 -345 212 -42 24 -147 28 -182 8z m-29 -184 c-3 -10 -36 -109 -74 -221 l-67 -203 -34 161 c-19 88 -32 162 -30 164 13 11 195 115 202 116 5 0 6 -8 3 -17z m332 -39 c54 -31 99 -58 101 -60 2 -2 -11 -76 -30 -164 l-34 -161 -67 203 c-38 112 -71 211 -74 221 -3 9 -2 17 1 17 4 0 50 -25 103 -56z m-116 -333 l96 -290 -95 -128 c-53 -70 -99 -128 -103 -128 -4 0 -51 58 -103 128 l-95 128 96 289 c53 160 99 290 102 290 3 0 49 -130 102 -289z"/>
 </g>

</svg>
