<svg width="512" height="512" viewBox="0 0 512 512" fill="none" xmlns="http://www.w3.org/2000/svg">
<path d="M265.093 1.06442H119.149C78.6687 1.06442 46 33.7075 46 74.1566V438.908C46 479.357 78.6687 512 119.149 512C159.63 512 192.299 479.357 192.299 438.908V365.816H265.448C366.295 365.816 447.967 284.208 447.967 183.44C447.967 82.6722 365.94 1.06442 265.093 1.06442Z" fill="#270F34"/>
<path d="M434.473 397.039C457.555 430.037 449.743 475.454 416.364 498.517C382.985 521.58 337.888 513.774 314.807 480.421L205.437 324.302C182.356 291.304 190.523 245.888 223.547 222.825C256.571 199.762 302.023 207.922 325.104 240.92L434.473 397.039Z" fill="#270F34"/>
<mask id="mask0" mask-type="alpha" maskUnits="userSpaceOnUse" x="116" y="56" width="226" height="226">
<path d="M342 210.727C342 210.727 342.055 234.282 339.49 244.492C336.926 254.701 332.216 261.819 326.998 267.037C321.756 272.277 314.813 277.042 304.229 279.525C293.645 282.008 270.68 281.964 270.68 281.964L187.248 282C187.248 282 163.689 282.055 153.478 279.491C143.267 276.926 136.148 272.218 130.93 267C125.688 261.76 120.923 254.817 118.439 244.235C115.956 233.653 116 210.691 116 210.691V127.273C116 127.273 115.945 103.718 118.51 93.5085C121.074 83.299 125.784 76.1811 131.002 70.9637C136.244 65.7229 143.187 60.9577 153.771 58.4751C164.355 55.9924 187.32 56.0361 187.32 56.0361L270.752 56.0001C270.752 56.0001 294.311 55.9454 304.522 58.5095C314.733 61.0736 321.852 65.7821 327.07 70.9997C332.311 76.2405 337.077 83.1829 339.561 93.7651C342.044 104.348 342 127.309 342 127.309V210.727Z" fill="white"/>
</mask>
<g mask="url(#mask0)">
<path d="M342 210.727C342 210.727 342.055 234.282 339.49 244.492C336.926 254.701 332.216 261.819 326.998 267.037C321.756 272.277 314.813 277.042 304.229 279.525C293.645 282.008 270.68 281.964 270.68 281.964L187.248 282C187.248 282 163.689 282.055 153.478 279.491C143.267 276.926 136.148 272.218 130.93 267C125.688 261.76 120.923 254.817 118.439 244.235C115.956 233.653 116 210.691 116 210.691V127.273C116 127.273 115.945 103.718 118.51 93.5085C121.074 83.299 125.784 76.1811 131.002 70.9637C136.244 65.7229 143.187 60.9577 153.771 58.4751C164.355 55.9924 187.32 56.0361 187.32 56.0361L270.752 56.0001C270.752 56.0001 294.311 55.9454 304.522 58.5095C314.733 61.0736 321.852 65.7821 327.07 70.9997C332.311 76.2405 337.077 83.1829 339.561 93.7651C342.044 104.348 342 127.309 342 127.309V210.727Z" fill="#270F34"/>
<path fill-rule="evenodd" clip-rule="evenodd" d="M198.399 149.128C208.601 149.128 216.872 140.883 216.872 130.714C216.872 120.544 208.601 112.3 198.399 112.3C188.196 112.3 179.925 120.544 179.925 130.714C179.925 140.883 188.196 149.128 198.399 149.128ZM272.293 149.128C282.496 149.128 290.767 140.883 290.767 130.714C290.767 120.544 282.496 112.3 272.293 112.3C262.09 112.3 253.819 120.544 253.819 130.714C253.819 140.883 262.09 149.128 272.293 149.128ZM272.293 222.783C282.496 222.783 290.767 214.539 290.767 204.369C290.767 194.2 282.496 185.955 272.293 185.955C262.09 185.955 253.819 194.2 253.819 204.369C253.819 214.539 262.09 222.783 272.293 222.783ZM198.399 222.783C208.601 222.783 216.872 214.539 216.872 204.369C216.872 194.2 208.601 185.955 198.399 185.955C188.196 185.955 179.925 194.2 179.925 204.369C179.925 214.539 188.196 222.783 198.399 222.783Z" fill="#2C96FF"/>
<path fill-rule="evenodd" clip-rule="evenodd" d="M186.118 154.024C196.321 154.024 204.592 145.78 204.592 135.61C204.592 125.44 196.321 117.196 186.118 117.196C175.915 117.196 167.645 125.44 167.645 135.61C167.645 145.78 175.915 154.024 186.118 154.024ZM260.012 154.024C270.215 154.024 278.486 145.78 278.486 135.61C278.486 125.44 270.215 117.196 260.012 117.196C249.81 117.196 241.539 125.44 241.539 135.61C241.539 145.78 249.81 154.024 260.012 154.024ZM260.012 227.68C270.215 227.68 278.486 219.435 278.486 209.266C278.486 199.096 270.215 190.852 260.012 190.852C249.81 190.852 241.539 199.096 241.539 209.266C241.539 219.435 249.81 227.68 260.012 227.68ZM186.118 227.68C196.321 227.68 204.592 219.435 204.592 209.266C204.592 199.096 196.321 190.852 186.118 190.852C175.915 190.852 167.645 199.096 167.645 209.266C167.645 219.435 175.915 227.68 186.118 227.68Z" fill="#E91E63"/>
<path fill-rule="evenodd" clip-rule="evenodd" d="M192.258 146.679C202.461 146.679 210.732 138.435 210.732 128.265C210.732 118.096 202.461 109.852 192.258 109.852C182.056 109.852 173.785 118.096 173.785 128.265C173.785 138.435 182.056 146.679 192.258 146.679ZM266.153 146.679C276.355 146.679 284.626 138.435 284.626 128.265C284.626 118.096 276.355 109.852 266.153 109.852C255.95 109.852 247.679 118.096 247.679 128.265C247.679 138.435 255.95 146.679 266.153 146.679ZM266.153 220.335C276.355 220.335 284.626 212.091 284.626 201.921C284.626 191.751 276.355 183.507 266.153 183.507C255.95 183.507 247.679 191.751 247.679 201.921C247.679 212.091 255.95 220.335 266.153 220.335ZM192.258 220.335C202.461 220.335 210.732 212.091 210.732 201.921C210.732 191.751 202.461 183.507 192.258 183.507C182.056 183.507 173.785 191.751 173.785 201.921C173.785 212.091 182.056 220.335 192.258 220.335Z" fill="white"/>
</g>
</svg>
