<?xml version="1.0" encoding="UTF-8" standalone="no"?>
<svg
   xmlns:dc="http://purl.org/dc/elements/1.1/"
   xmlns:cc="http://creativecommons.org/ns#"
   xmlns:rdf="http://www.w3.org/1999/02/22-rdf-syntax-ns#"
   xmlns:svg="http://www.w3.org/2000/svg"
   xmlns="http://www.w3.org/2000/svg"
   xmlns:sodipodi="http://sodipodi.sourceforge.net/DTD/sodipodi-0.dtd"
   xmlns:inkscape="http://www.inkscape.org/namespaces/inkscape"
   version="1.0"
   width="686"
   height="686"
   viewBox="0 0 6860 6860"
   preserveAspectRatio="xMidYMid meet"
   id="svg254"
   sodipodi:docname="oichat.svg"
   inkscape:version="0.92.4 (unknown)">
  <metadata
     id="metadata260">
    <rdf:RDF>
      <cc:Work
         rdf:about="">
        <dc:format>image/svg+xml</dc:format>
        <dc:type
           rdf:resource="http://purl.org/dc/dcmitype/StillImage" />
        <dc:title />
      </cc:Work>
    </rdf:RDF>
  </metadata>
  <defs
     id="defs258" />
  <sodipodi:namedview
     pagecolor="#ffffff"
     bordercolor="#666666"
     borderopacity="1"
     objecttolerance="10"
     gridtolerance="10"
     guidetolerance="10"
     inkscape:pageopacity="0"
     inkscape:pageshadow="2"
     inkscape:window-width="2740"
     inkscape:window-height="1491"
     id="namedview256"
     showgrid="false"
     inkscape:zoom="1.3038674"
     inkscape:cx="395.91949"
     inkscape:cy="457.1017"
     inkscape:window-x="140"
     inkscape:window-y="55"
     inkscape:window-maximized="1"
     inkscape:current-layer="svg254" />
  <g
     id="layer104"
     transform="matrix(1.8068031,0,0,1.8068031,-1808.0627,-128.25827)"
     style="fill:#5a9855;stroke:none">
    <path
       d="m 1917,1722 c -18,-19 -25,-90 -48,-497 -5,-93 -12,-214 -15,-267 -5,-69 -3,-102 5,-112 12,-14 40,-17 271,-31 41,-2 161,-9 265,-16 280,-18 267,-18 282,11 8,15 13,63 13,120 0,53 4,131 9,175 13,106 24,323 25,459 l 1,110 -30,8 c -28,8 -126,15 -535,38 -91,5 -179,12 -195,15 -23,5 -35,2 -48,-13 z m 428,-222 c 83,-5 187,-12 231,-16 l 81,-7 -4,-111 c -2,-61 -8,-149 -14,-196 -5,-47 -9,-125 -9,-175 0,-49 -3,-101 -7,-114 -6,-23 -7,-24 -87,-17 -90,8 -307,22 -491,32 -121,7 -139,13 -129,46 4,15 16,192 31,477 l 5,104 122,-7 c 66,-4 189,-11 271,-16 z"
       id="path59"
       inkscape:connector-curvature="0" />
  </g>
  <g
     id="layer104-3"
     transform="matrix(1.373498,0.35743102,-0.35743102,1.373498,-1041.8944,1610.8424)"
     style="display:inline;fill:#b53639;stroke:none">
    <path
       d="m 1917,1722 c -18,-19 -25,-90 -48,-497 -5,-93 -12,-214 -15,-267 -5,-69 -3,-102 5,-112 12,-14 40,-17 271,-31 41,-2 161,-9 265,-16 280,-18 267,-18 282,11 8,15 13,63 13,120 0,53 4,131 9,175 13,106 24,323 25,459 l 1,110 -30,8 c -28,8 -126,15 -535,38 -91,5 -179,12 -195,15 -23,5 -35,2 -48,-13 z m 428,-222 c 83,-5 187,-12 231,-16 l 81,-7 -4,-111 c -2,-61 -8,-149 -14,-196 -5,-47 -9,-125 -9,-175 0,-49 -3,-101 -7,-114 -6,-23 -7,-24 -87,-17 -90,8 -307,22 -491,32 -121,7 -139,13 -129,46 4,15 16,192 31,477 l 5,104 122,-7 c 66,-4 189,-11 271,-16 z"
       id="path59-6"
       inkscape:connector-curvature="0"
       style="fill:#b53639" />
  </g>
  <g
     id="layer104-7"
     transform="matrix(1.9734773,0.2195292,-0.2195292,1.9734773,-678.47224,1788.1092)"
     style="display:inline;fill:#527eba;stroke:none">
    <path
       d="m 1917,1722 c -18,-19 -25,-90 -48,-497 -5,-93 -12,-214 -15,-267 -5,-69 -3,-102 5,-112 12,-14 40,-17 271,-31 41,-2 161,-9 265,-16 280,-18 267,-18 282,11 8,15 13,63 13,120 0,53 4,131 9,175 13,106 24,323 25,459 l 1,110 -30,8 c -28,8 -126,15 -535,38 -91,5 -179,12 -195,15 -23,5 -35,2 -48,-13 z m 428,-222 c 83,-5 187,-12 231,-16 l 81,-7 -4,-111 c -2,-61 -8,-149 -14,-196 -5,-47 -9,-125 -9,-175 0,-49 -3,-101 -7,-114 -6,-23 -7,-24 -87,-17 -90,8 -307,22 -491,32 -121,7 -139,13 -129,46 4,15 16,192 31,477 l 5,104 122,-7 c 66,-4 189,-11 271,-16 z"
       id="path59-5"
       inkscape:connector-curvature="0"
       style="fill:#527eba" />
  </g>
  <g
     id="layer104-35"
     transform="matrix(1.4388957,0,0,1.4388957,1981.4075,1974.7558)"
     style="display:inline;fill:#deaa3e;stroke:none">
    <path
       d="m 1917,1722 c -18,-19 -25,-90 -48,-497 -5,-93 -12,-214 -15,-267 -5,-69 -3,-102 5,-112 12,-14 40,-17 271,-31 41,-2 161,-9 265,-16 280,-18 267,-18 282,11 8,15 13,63 13,120 0,53 4,131 9,175 13,106 24,323 25,459 l 1,110 -30,8 c -28,8 -126,15 -535,38 -91,5 -179,12 -195,15 -23,5 -35,2 -48,-13 z m 428,-222 c 83,-5 187,-12 231,-16 l 81,-7 -4,-111 c -2,-61 -8,-149 -14,-196 -5,-47 -9,-125 -9,-175 0,-49 -3,-101 -7,-114 -6,-23 -7,-24 -87,-17 -90,8 -307,22 -491,32 -121,7 -139,13 -129,46 4,15 16,192 31,477 l 5,104 122,-7 c 66,-4 189,-11 271,-16 z"
       id="path59-62"
       inkscape:connector-curvature="0"
       style="fill:#deaa3e" />
  </g>
  <g
     id="layer104-9"
     transform="matrix(1.9846127,0.40920432,-0.40920432,1.9846127,420.95689,-1566.5084)"
     style="fill:#b53639;stroke:none">
    <path
       d="m 1917,1722 c -18,-19 -25,-90 -48,-497 -5,-93 -12,-214 -15,-267 -5,-69 -3,-102 5,-112 12,-14 40,-17 271,-31 41,-2 161,-9 265,-16 280,-18 267,-18 282,11 8,15 13,63 13,120 0,53 4,131 9,175 13,106 24,323 25,459 l 1,110 -30,8 c -28,8 -126,15 -535,38 -91,5 -179,12 -195,15 -23,5 -35,2 -48,-13 z m 428,-222 c 83,-5 187,-12 231,-16 l 81,-7 -4,-111 c -2,-61 -8,-149 -14,-196 -5,-47 -9,-125 -9,-175 0,-49 -3,-101 -7,-114 -6,-23 -7,-24 -87,-17 -90,8 -307,22 -491,32 -121,7 -139,13 -129,46 4,15 16,192 31,477 l 5,104 122,-7 c 66,-4 189,-11 271,-16 z"
       id="path59-1"
       inkscape:connector-curvature="0"
       style="fill:#b53639" />
  </g>
</svg>
