<?xml version="1.0" standalone="no"?>
<!DOCTYPE svg PUBLIC "-//W3C//DTD SVG 20010904//EN"
 "http://www.w3.org/TR/2001/REC-SVG-20010904/DTD/svg10.dtd">
<svg version="1.0" xmlns="http://www.w3.org/2000/svg"
 width="700.000000pt" height="700.000000pt" viewBox="0 0 700.000000 700.000000"
 preserveAspectRatio="xMidYMid meet">
<metadata>
Created by potrace 1.11, written by Peter Selinger 2001-2013
</metadata>
<g transform="translate(0.000000,700.000000) scale(0.100000,-0.100000)"
fill="#000000" stroke="none">
<path d="M3835 6097 c-16 -26 -33 -81 -40 -140 -10 -73 -17 -116 -25 -167 -5
-30 -12 -75 -15 -100 -3 -25 -12 -85 -20 -135 -8 -49 -16 -110 -20 -135 -3
-25 -8 -56 -10 -70 -7 -40 -13 -80 -25 -170 -6 -47 -13 -98 -16 -115 -7 -46
-13 -86 -19 -130 -3 -22 -10 -71 -16 -110 -5 -38 -12 -86 -14 -105 -3 -19 -9
-71 -15 -115 -21 -164 -23 -259 -6 -292 15 -30 58 -52 96 -51 15 1 93 -7 175
-18 36 -4 287 -40 560 -80 55 -8 114 -16 130 -19 17 -2 44 -6 60 -9 17 -3 53
-7 80 -11 28 -3 75 -9 105 -15 30 -5 78 -12 105 -15 28 -4 61 -9 75 -11 34 -7
270 -18 270 -13 0 2 12 63 26 134 32 167 31 160 43 230 13 78 17 98 30 170 5
33 13 78 16 100 3 23 7 52 10 65 5 24 8 46 20 140 3 25 8 56 10 70 5 31 17
127 20 160 1 14 5 57 9 95 4 39 11 95 16 125 5 30 11 71 14 90 3 19 15 87 26
150 34 188 32 268 -9 289 -28 15 -114 32 -256 52 -44 6 -89 12 -100 14 -11 2
-42 6 -70 9 -27 4 -90 13 -140 21 -49 8 -110 17 -134 20 -25 3 -170 23 -324
46 -154 22 -303 42 -331 45 -28 4 -54 8 -57 10 -3 2 -53 6 -111 10 l-106 7
-17 -26z m330 -161 c22 -4 81 -13 135 -21 19 -3 80 -12 135 -20 55 -9 136 -20
180 -26 44 -5 91 -12 105 -15 14 -2 45 -7 70 -10 25 -3 56 -7 70 -9 14 -2 63
-9 110 -15 47 -6 99 -12 115 -15 17 -2 53 -7 80 -10 94 -11 130 -17 169 -27
l39 -10 -6 -81 c-3 -45 -8 -95 -12 -112 -27 -146 -34 -186 -40 -225 -4 -25 -9
-52 -10 -60 -9 -49 -16 -102 -20 -150 -12 -138 -21 -203 -56 -415 -17 -99 -31
-188 -32 -198 -1 -16 -8 -17 -57 -12 -65 6 -243 29 -325 41 -56 8 -530 75
-565 80 -19 2 -48 6 -65 9 -16 3 -48 7 -70 10 -22 3 -49 7 -60 10 -11 2 -47 7
-80 10 -33 4 -62 8 -65 10 -3 2 -32 7 -65 10 -32 4 -66 8 -74 10 -11 1 -16 12
-15 31 0 34 13 140 19 157 2 7 6 28 9 47 5 37 34 237 41 280 6 45 17 114 20
140 2 14 6 45 10 70 4 25 9 59 11 75 2 17 6 41 9 55 2 14 7 49 10 79 4 30 8
61 10 70 3 17 13 104 20 180 7 71 15 75 130 67 55 -3 109 -8 120 -10z"/>
<path d="M2817 5674 c-1 -1 -60 -5 -132 -9 -71 -4 -148 -8 -170 -10 -22 -2
-94 -7 -160 -10 -66 -4 -138 -8 -160 -10 -22 -2 -94 -6 -160 -10 -66 -4 -140
-8 -165 -10 -25 -2 -85 -7 -135 -10 -50 -4 -106 -14 -125 -23 l-35 -17 0 -130
c1 -111 8 -275 20 -455 1 -25 6 -103 10 -175 3 -71 8 -150 10 -175 2 -25 7
-97 10 -160 4 -63 8 -133 10 -155 13 -164 18 -208 26 -264 17 -111 35 -126
142 -116 40 3 92 8 117 10 25 2 92 7 150 10 58 3 130 8 160 10 30 2 111 6 180
10 69 3 150 8 180 10 30 3 98 7 150 10 252 16 333 24 403 41 4 1 14 2 23 3 14
1 15 28 9 274 -4 149 -8 297 -9 327 -6 111 -17 276 -21 310 -2 19 -7 67 -10
105 -4 39 -8 90 -10 115 -3 25 -7 122 -10 215 -7 237 -17 279 -65 290 -25 5
-226 5 -233 -1z m164 -145 c13 -22 20 -92 24 -268 3 -95 7 -192 9 -215 18
-167 23 -242 31 -441 3 -93 8 -176 10 -182 3 -7 -3 -13 -13 -14 -9 0 -25 -2
-34 -4 -15 -3 -65 -7 -243 -20 -183 -13 -256 -18 -310 -20 -69 -3 -266 -15
-340 -20 -27 -2 -102 -6 -165 -10 -63 -4 -132 -8 -153 -10 -21 -1 -39 1 -41 4
-2 3 -7 76 -11 161 -7 159 -10 218 -20 375 -3 50 -7 128 -10 175 -13 213 -23
330 -31 367 -10 48 50 62 331 78 219 12 294 16 345 20 30 2 102 7 160 10 58 4
121 8 140 10 19 2 82 6 140 10 58 4 107 8 109 10 8 8 65 -5 72 -16z"/>
<path d="M5717 3823 c-1 -1 -54 -4 -117 -8 -63 -3 -140 -8 -170 -10 -30 -2
-107 -6 -170 -10 -63 -3 -140 -8 -170 -10 -30 -2 -93 -7 -140 -10 -137 -9
-180 -16 -196 -33 -16 -15 -15 -107 1 -362 3 -56 12 -208 21 -355 29 -521 42
-593 105 -588 13 1 60 4 104 7 183 15 188 15 485 31 358 20 495 32 529 48 24
12 25 12 22 162 -3 235 -19 537 -36 675 -3 19 -7 100 -10 180 -7 193 -13 240
-31 268 -15 23 -20 23 -120 20 -58 -1 -106 -4 -107 -5z m154 -138 c5 -16 11
-102 13 -190 5 -148 12 -257 21 -312 2 -12 7 -100 10 -196 l7 -173 -23 -1
c-13 0 -60 -3 -104 -7 -125 -10 -293 -21 -485 -31 -58 -3 -127 -8 -155 -10
-27 -2 -98 -7 -157 -10 -101 -7 -108 -6 -109 12 -4 48 -7 119 -13 238 -3 72
-8 159 -11 195 -2 36 -7 103 -10 150 -3 47 -8 117 -12 155 -10 127 -10 128 17
142 14 7 64 15 110 18 47 3 114 8 150 10 36 3 112 7 170 10 58 3 130 7 160 10
30 2 98 7 150 11 52 3 96 7 97 8 1 1 39 1 84 1 l82 0 8 -30z"/>
<path d="M1225 3477 c-14 -21 -39 -125 -70 -287 -2 -14 -21 -106 -40 -205 -20
-99 -38 -191 -41 -205 -3 -14 -7 -32 -9 -40 -3 -8 -7 -32 -11 -54 -3 -21 -8
-48 -10 -60 -16 -67 -54 -316 -54 -347 0 -45 22 -65 80 -73 25 -3 55 -8 66
-10 12 -2 37 -7 55 -10 19 -3 126 -24 239 -46 586 -118 686 -135 707 -122 11
8 22 36 29 79 3 16 9 42 14 58 26 86 122 553 135 662 4 26 22 118 41 204 49
222 49 244 -1 264 -27 12 -250 60 -411 89 -15 3 -50 10 -78 16 -28 6 -62 12
-76 15 -14 3 -47 9 -75 15 -27 5 -61 12 -75 14 -14 2 -59 11 -100 20 -113 23
-189 36 -247 42 -47 6 -53 4 -68 -19z m200 -112 c17 -4 75 -15 130 -26 55 -11
111 -22 125 -25 14 -2 48 -9 75 -15 28 -6 61 -13 75 -15 14 -2 48 -9 75 -14
28 -5 64 -12 80 -15 17 -3 66 -12 110 -21 44 -8 98 -17 120 -20 69 -10 78 -19
72 -72 -3 -26 -18 -105 -35 -177 -17 -71 -33 -148 -37 -170 -9 -61 -15 -95
-26 -155 -6 -30 -13 -68 -16 -85 -3 -16 -15 -75 -27 -130 -19 -86 -25 -100
-41 -99 -35 1 -108 12 -190 29 -44 8 -96 18 -115 21 -19 3 -89 17 -155 30 -66
14 -133 27 -150 30 -16 3 -84 16 -150 29 -105 21 -154 31 -202 39 -27 5 -27 6
12 186 30 143 97 489 117 605 6 39 16 73 22 78 11 7 71 3 131 -8z"/>
<path d="M2925 3072 c-85 -13 -86 -17 -100 -262 -3 -58 -8 -139 -10 -180 -3
-41 -7 -129 -11 -195 -3 -66 -7 -145 -9 -175 -1 -30 -6 -120 -10 -200 -4 -80
-9 -172 -11 -205 -10 -155 -13 -514 -5 -543 20 -68 11 -66 316 -77 105 -4 208
-8 230 -10 22 -1 105 -5 185 -9 80 -5 170 -9 200 -11 300 -18 702 -26 714 -15
7 8 13 51 21 145 3 44 8 91 10 105 5 34 14 139 20 233 3 42 8 112 11 155 8
119 13 237 19 477 3 121 8 240 10 265 21 226 25 335 12 373 -20 59 -40 63
-462 82 -77 4 -176 8 -220 10 -173 8 -332 16 -380 20 -130 10 -497 22 -530 17z
m445 -166 c36 -2 133 -8 215 -11 83 -4 170 -9 195 -10 25 -2 126 -6 225 -10
99 -4 220 -8 269 -10 105 -4 116 -12 118 -81 1 -48 -11 -231 -17 -266 -5 -22
-12 -203 -21 -460 -3 -103 -7 -200 -9 -215 -2 -15 -6 -73 -10 -128 -4 -55 -8
-102 -11 -104 -4 -4 -191 -2 -317 4 -196 9 -358 17 -407 20 -30 2 -118 6 -195
10 -77 3 -171 8 -210 11 -111 7 -237 13 -268 14 l-29 0 7 123 c4 67 8 147 10
177 2 30 7 109 10 175 4 66 8 149 10 185 11 209 18 367 19 457 2 105 6 118 41
125 21 5 267 1 375 -6z"/>
</g>
</svg>
